<svg width="33" height="70" viewBox="0 0 33 70" fill="none" xmlns="http://www.w3.org/2000/svg">
<path d="M31.5139 40.3992C30.6764 38.4173 29.4573 36.6811 27.8566 35.1899C26.2799 33.7226 23.7221 32.1176 20.1878 30.3758L20.1775 14.6562C22.6636 15.1769 25.0627 16.2639 27.3756 17.9181L30.2944 9.6425C28.0777 7.86912 24.7032 6.76102 20.172 6.31736L20.2083 0H11.7478V6.68705C8.20107 7.54906 5.3751 9.26078 3.26949 11.8225C1.16389 14.3843 0.110469 17.3398 0.110469 20.689C0.110469 22.9555 0.498613 25.0117 1.27463 26.8585C2.04996 28.7059 3.16477 30.2948 4.61822 31.6248C5.93606 32.8305 8.31496 34.3213 11.748 36.0938V53.2771C9.04723 52.7522 6.31326 51.5205 3.54676 49.5802L0 58.1889C3.54676 60.455 7.46293 61.7352 11.748 62.0308V69.8633H20.2084V61.3657C24.149 60.4049 27.2282 58.6376 29.4448 56.0638C31.662 53.4911 32.77 50.4797 32.77 47.0308C32.7698 44.5925 32.3515 42.3819 31.5139 40.3992ZM9.71606 20.615C9.71606 18.7927 10.3258 17.2843 11.5449 16.0895C11.6108 16.0248 11.6789 15.9629 11.7477 15.9018V24.8198C10.3945 23.3939 9.71606 21.9923 9.71606 20.615ZM20.2025 52.6139L20.1951 41.3649C20.5125 41.6631 20.7962 41.9572 21.0396 42.2465C22.4809 43.959 23.2013 45.7875 23.2013 47.7328C23.2012 50.0497 22.2013 51.6765 20.2025 52.6139Z" fill="#00B4D8"/>
</svg>
