<svg width="52" height="78" viewBox="0 0 52 78" fill="none" xmlns="http://www.w3.org/2000/svg">
<path d="M32.8111 18.5549C32.6111 17.9649 32.0511 17.5449 31.3911 17.5449H20.3911C19.7311 17.5449 19.1811 17.9649 18.9711 18.5549L16.8911 24.5449V32.5449C16.8911 33.0949 17.3411 33.5449 17.8911 33.5449H18.8911C19.4411 33.5449 19.8911 33.0949 19.8911 32.5449V31.5449H31.8911V32.5449C31.8911 33.0949 32.3411 33.5449 32.8911 33.5449H33.8911C34.4411 33.5449 34.8911 33.0949 34.8911 32.5449V24.5449L32.8111 18.5549ZM20.3911 28.5449C19.5611 28.5449 18.8911 27.8749 18.8911 27.0449C18.8911 26.2149 19.5611 25.5449 20.3911 25.5449C21.2211 25.5449 21.8911 26.2149 21.8911 27.0449C21.8911 27.8749 21.2211 28.5449 20.3911 28.5449ZM31.3911 28.5449C30.5611 28.5449 29.8911 27.8749 29.8911 27.0449C29.8911 26.2149 30.5611 25.5449 31.3911 25.5449C32.2211 25.5449 32.8911 26.2149 32.8911 27.0449C32.8911 27.8749 32.2211 28.5449 31.3911 28.5449ZM18.8911 23.5449L20.3911 19.0449H31.3911L32.8911 23.5449H18.8911Z" fill="#00B4D8"/>
<path d="M20.8911 36.5449H24.8911V34.5449L30.8911 37.5449H26.8911V39.5449L20.8911 36.5449Z" fill="#00B4D8"/>
<g filter="url(#filter0_d)">
<path d="M28.0908 62.6361C28.0908 63.9667 27.0122 65.0452 25.6817 65.0452C24.3511 65.0452 23.2727 63.9667 23.2727 62.6361C23.2727 61.3055 24.3511 60.2271 25.6817 60.2271C27.0122 60.2271 28.0908 61.3054 28.0908 62.6361ZM47.3634 7.22723V62.6359C47.3634 66.6109 44.1111 69.8631 40.1363 69.8631H11.2272C7.25227 69.8631 4 66.6109 4 62.6359V7.22723C4 3.25227 7.25227 0 11.2272 0H40.1361C44.1111 0 47.3634 3.25227 47.3634 7.22723ZM29.0544 62.6361C29.0544 60.7765 27.5412 59.2633 25.6817 59.2633C23.8219 59.2633 22.309 60.7765 22.309 62.6361C22.309 64.4957 23.8219 66.0088 25.6817 66.0088C27.5412 66.0088 29.0544 64.4956 29.0544 62.6361ZM44.4724 7.22723C44.4724 4.83602 42.5272 2.89092 40.1361 2.89092H11.2272C8.83602 2.89092 6.89078 4.83602 6.89078 7.22723V55.4087H44.4724V7.22723Z" fill="#00B4D8"/>
<path d="M28.0908 62.6361C28.0908 63.9667 27.0122 65.0452 25.6817 65.0452C24.3511 65.0452 23.2727 63.9667 23.2727 62.6361C23.2727 61.3055 24.3511 60.2271 25.6817 60.2271C27.0122 60.2271 28.0908 61.3054 28.0908 62.6361ZM47.3634 7.22723V62.6359C47.3634 66.6109 44.1111 69.8631 40.1363 69.8631H11.2272C7.25227 69.8631 4 66.6109 4 62.6359V7.22723C4 3.25227 7.25227 0 11.2272 0H40.1361C44.1111 0 47.3634 3.25227 47.3634 7.22723ZM29.0544 62.6361C29.0544 60.7765 27.5412 59.2633 25.6817 59.2633C23.8219 59.2633 22.309 60.7765 22.309 62.6361C22.309 64.4957 23.8219 66.0088 25.6817 66.0088C27.5412 66.0088 29.0544 64.4956 29.0544 62.6361ZM44.4724 7.22723C44.4724 4.83602 42.5272 2.89092 40.1361 2.89092H11.2272C8.83602 2.89092 6.89078 4.83602 6.89078 7.22723V55.4087H44.4724V7.22723Z" fill="#00B4D8"/>
</g>
<defs>
<filter id="filter0_d" x="0" y="0" width="51.3634" height="77.8631" filterUnits="userSpaceOnUse" color-interpolation-filters="sRGB">
<feFlood flood-opacity="0" result="BackgroundImageFix"/>
<feColorMatrix in="SourceAlpha" type="matrix" values="0 0 0 0 0 0 0 0 0 0 0 0 0 0 0 0 0 0 127 0"/>
<feOffset dy="4"/>
<feGaussianBlur stdDeviation="2"/>
<feColorMatrix type="matrix" values="0 0 0 0 0 0 0 0 0 0 0 0 0 0 0 0 0 0 0.25 0"/>
<feBlend mode="normal" in2="BackgroundImageFix" result="effect1_dropShadow"/>
<feBlend mode="normal" in="SourceGraphic" in2="effect1_dropShadow" result="shape"/>
</filter>
</defs>
</svg>
